{"title":"Terminator Genisys(2015)MPEG-4[DaScubaDude]","uid":13807352,"size":1263155211,"categoryP":"video","categoryS":"movies","magnet":"?xt=urn:btih:55dff9c360a3a241d03c9a98c333555028b5482f&amp;dn=Terminator+Genisys%282015%29MPEG-4%5BDaScubaDude%5D&amp;tr=udp%3A%2F%2Ftracker.leechers-paradise.org%3A6969&amp;tr=udp%3A%2F%2Fzer0day.ch%3A1337&amp;tr=udp%3A%2F%2Fopen.demonii.com%3A1337&amp;tr=udp%3A%2F%2Ftracker.coppersurfer.tk%3A6969&amp;tr=udp%3A%2F%2Fexodus.desync.com%3A6969","seeders":0,"leechers":0,"uploader":"dascuba","files":1,"time":1457484878,"description":"Terminator Genisys (2015)\r\nPG-13 | 2h 6min | Action, Adventure, Sci-Fi | 1 July 2015 (USA)\r\nWhen John Connor, leader of the human resistance, sends Sgt. Kyle Reese back to 1984 to protect Sarah Connor and safeguard the future, an unexpected turn of events creates a fractured timeline.\r\nDirector: Alan Taylor\r\nWriters: Laeta Kalogridis, Patrick Lussier | 2 more credits »\r\nStars: Arnold Schwarzenegger, Jason Clarke, Emilia Clarke\r\n\r\nGeneral\r\nComplete name                            : Terminator GenisysTERMINATOR_GENISYS_Title1.mp4\r\nFormat                                   : MPEG-4\r\nFormat profile                           : Base Media\r\nCodec ID                                 : isom\r\nFile size                                : 1.18 GiB\r\nDuration                                 : 2h 5mn\r\nOverall bit rate                         : 1 341 Kbps\r\nMovie name                               : TERMINATOR_GENISYS\r\nGenre                                    : Action\r\nWriting application                      : Lavf54.6.100\r\n\r\nVideo\r\nID                                       : 1\r\nFormat                                   : AVC\r\nFormat/Info                              : Advanced Video Codec\r\nFormat profile                           :   \r\nFormat settings, CABAC                   : No\r\nFormat settings, ReFrames                : 6 frames\r\nCodec ID                                 : avc1\r\nCodec ID/Info                            : Advanced Video Coding\r\nDuration                                 : 2h 5mn\r\nBit rate                                 : 1 206 Kbps\r\nWidth                                    : 720 pixels\r\nHeight                                   : 404 pixels\r\nDisplay aspect ratio                     : 16:9\r\nFrame rate mode                          : Constant\r\nFrame rate                               : 29.970 fps\r\nColor space                              : YUV\r\nChroma subsampling                       : 4:2:0\r\nBit depth                                : 8 bits\r\nScan type                                : Progressive\r\nBits/(Pixel*Frame)                       : 0.138\r\nStream size                              : 1.06 GiB (90%)\r\n\r\nAudio\r\nID                                       : 2\r\nFormat                                   : AAC\r\nFormat/Info                              : Advanced Audio Codec\r\nFormat profile                           : LC\r\nCodec ID                                 : 40\r\nDuration                                 : 2h 5mn\r\nBit rate mode                            : Constant\r\nBit rate                                 : 128 Kbps\r\nChannel(s)                               : 2 channels\r\nChannel positions                        : Front: L R\r\nSampling rate                            : 44.1 KHz\r\nCompression mode                         : Lossy\r\nStream size                              : 115 MiB (10%)","torrent":{"xt":"urn:btih:55dff9c360a3a241d03c9a98c333555028b5482f","amp;dn":"Terminator+Genisys%282015%29MPEG-4%5BDaScubaDude%5D","amp;tr":["udp%3A%2F%2Ftracker.leechers-paradise.org%3A6969","udp%3A%2F%2Fzer0day.ch%3A1337","udp%3A%2F%2Fopen.demonii.com%3A1337","udp%3A%2F%2Ftracker.coppersurfer.tk%3A6969","udp%3A%2F%2Fexodus.desync.com%3A6969"],"infoHash":"55dff9c360a3a241d03c9a98c333555028b5482f","infoHashBuffer":{"type":"Buffer","data":[85,223,249,195,96,163,162,65,208,60,154,152,195,51,85,80,40,181,72,47]},"announce":[],"urlList":[]}}